<svg width="49" height="87" fill="none" xmlns="http://www.w3.org/2000/svg"><path d="M8.787 86.315c-1.656-.432-3.294-.9-4.68-1.98C1.46 82.302.039 79.638.02 76.308c-.036-8.353-.018-16.704 0-25.056.018-4.68 2.916-8.496 7.434-9.792 2.556-.738 5.148-1.422 7.722-2.106.522-.144.72-.36.702-.918-.036-1.656 0-3.312-.036-4.968 0-.288-.216-.702-.45-.846-1.89-1.116-2.772-2.952-2.304-4.878.486-2.016 2.142-3.276 4.41-3.33.18 0 .378-.036.666-.054a10441.68 10441.68 0 00-7.938-21.6c.936-.342 1.782-.648 2.7-.99.972 2.646 1.926 5.22 2.862 7.794 1.656 4.5 3.312 9 4.968 13.518.54 1.458.54 1.458 2.25 1.278V.006h2.88v24.246c.144.09.198.144.252.144 1.548.108 1.548.108 2.07-1.332 2.52-6.822 5.022-13.644 7.542-20.466.09-.252.198-.522.324-.846.9.324 1.746.648 2.682.99-2.664 7.236-5.292 14.382-7.938 21.6.648.072 1.206.072 1.746.18 1.782.36 3.096 1.746 3.384 3.456.306 1.818-.522 3.618-2.16 4.482-.54.288-.702.594-.684 1.17a110.99 110.99 0 010 4.896c0 .486.144.666.63.792 2.412.63 4.824 1.314 7.236 1.962 5.076 1.35 7.992 5.13 7.992 10.404 0 7.992-.09 15.966.035 23.957.09 5.76-3.995 9.954-8.603 10.566a.674.674 0 00-.216.126c-10.476-.018-20.934-.018-31.392-.018zm29.952-14.31c-.936.343-1.782.666-2.682.99-.72-1.962-1.476-3.834-2.088-5.742-.288-.882-.72-1.133-1.62-1.097-1.818.072-3.654.017-5.49.017-.288 0-.594.037-.99.055v8.568h-2.844V66.19c-2.466 0-4.806-.017-7.128.019-.216 0-.54.27-.63.486-.378.882-.666 1.782-1.008 2.681-.45 1.207-.882 2.395-1.332 3.636-.954-.342-1.8-.666-2.682-.99.72-1.98 1.404-3.852 2.106-5.777H3.045v11.43H46.01V66.263h-9.324a276.693 276.693 0 002.052 5.742zM21.405 41.569c-1.728.126-3.294.072-4.77.414-2.736.612-5.418 1.44-8.136 2.16-3.546.954-5.616 3.654-5.634 7.326v11.808c3.438 0 6.75.017 10.062-.037.234 0 .594-.36.702-.63a767.223 767.223 0 003.33-9c1.44-3.905 2.88-7.83 4.446-12.041zm24.66 21.708v-11.7c0-3.762-1.998-6.408-5.616-7.434-2.808-.792-5.598-1.656-8.442-2.268-1.368-.288-2.862-.054-4.302-.054 2.556 7.02 5.112 14.022 7.704 21.006.072.198.396.413.594.413 3.294.055 6.624.037 10.062.037zM4.377 80.59c1.656 1.98 3.618 2.862 6.012 2.862h28.17a9.6 9.6 0 001.764-.162c1.692-.36 3.078-1.188 4.194-2.682-13.41-.018-26.676-.017-40.14-.017zm18.594-17.37V46.05c-.054-.018-.09-.018-.144-.036-2.106 5.706-4.194 11.43-6.318 17.207h6.462zm3.15-17.207c-.036.018-.072.018-.126.036v17.172h6.444c-2.124-5.796-4.23-11.502-6.318-17.208zm4.05-12.978c-.774 0-1.476-.036-2.16.018-.198.018-.468.198-.54.378a91.733 91.733 0 00-1.368 3.708c-.18.54.342 1.62.774 1.638 1.08.036 2.178.018 3.312.018-.018-1.944-.018-3.798-.018-5.76zm-11.412 5.76h2.772c.954 0 1.566-.864 1.26-1.782a80.288 80.288 0 00-1.278-3.474c-.09-.198-.36-.468-.558-.468-.72-.054-1.44-.018-2.196-.018v5.742zm9.918-8.64c1.098 0 2.07.036 3.06 0 .774-.036 1.242-.468 1.35-1.242.108-.738-.36-1.458-1.098-1.548-.72-.09-1.512-.18-2.16.036-.324.108-.45.9-.648 1.386-.162.396-.306.81-.504 1.368zm-8.406 0c-.378-1.026-.72-1.944-1.062-2.862-.702 0-1.35-.036-1.98 0-.864.054-1.422.684-1.386 1.494.036.774.576 1.332 1.422 1.35.954.036 1.908.018 3.006.018z" fill="#FF4D00"/><path d="M20.073 73.301h-2.754V70.53h2.754v2.772zM8.553 76.2H5.799v-2.79h2.754v2.79zm34.577 0h-2.753v-2.79h2.754v2.79zm-11.483-4.213v2.772h-2.772v-2.772h2.772zm4.986-23.347c.558-.827 1.044-1.565 1.548-2.303 4.626 2.736 5.274 3.132 4.95 8.244h-2.826c0-.774-.018-1.548 0-2.322.036-.81-.288-1.386-.972-1.818-.882-.576-1.764-1.17-2.7-1.8zm3.744 8.912h2.754v2.772h-2.754v-2.772z" fill="#FF4D00"/></svg>