<svg width="70" height="88" fill="none" xmlns="http://www.w3.org/2000/svg"><path d="M8.378 33.734v-7.842c0-1.377.467-1.843 1.82-1.843h7.516c1.377 0 1.843.466 1.843 1.82v7.912c1.214.233 1.447 1.073 1.424 2.147a35.563 35.563 0 00.07 3.85c1.447-3.454 3.688-6.324 6.511-8.868-1.12-1.26-1.003-2.754-1.003-4.248a275.68 275.68 0 000-6.208c-.024-1.05.233-1.843 1.424-2.077V14.76c0-1.494.42-1.914 1.937-1.914h.816V8.342c-.91-.233-1.867-.467-2.8-.724-1.75-.513-2.824-2.053-2.754-3.804C25.275 2.111 26.489.57 28.216.36c1.19-.14 2.427.024 3.617.21 1.774.28 3.501.84 5.298 1.027.934.094 1.96-.21 2.87-.537 4.552-1.61 8.706-1.026 12.44 2.1 1.003.841 1.003 1.611.093 2.521-1.237 1.237-2.497 2.474-3.71 3.711-.63.654-1.284.817-2.124.397-2.357-1.167-4.878-1.26-7.469-1.097v4.154c.42 0 .817-.023 1.214 0 .98.047 1.494.56 1.517 1.54.023 1.308 0 2.614 0 3.991 1.19.234 1.447 1.05 1.424 2.124-.047 2.147-.024 4.318-.024 6.465 0 2.124 0 2.123-.863 3.897 1.143 1.26 2.334 2.45 3.384 3.781 2.917 3.758 4.41 8.052 4.48 12.813.047 3.5.024 7.001.024 10.502v.91c1.82.233 3.57.35 5.321.7 4.154.817 7.889 2.497 10.876 5.578 4.55 4.691 4.55 11.039.023 15.73-2.987 3.08-6.698 4.854-10.852 5.578-2.45.42-4.971.537-7.468.56-15.427.047-30.853.023-46.303.023-1.587 0-1.984-.42-1.984-2.03V44.236c0-1.47.233-1.774 1.657-2.077 1.54-.327 3.08-.677 4.621-.934.607-.093.723-.373.723-.91a147.9 147.9 0 010-4.55c-.023-1.284.14-1.541 1.377-2.031zM25.182 84.19V53.734c0-2.73-.023-5.485.023-8.215 0-.56-.14-.77-.723-.91-3.127-.747-6.302-1.05-9.522-1.027-3.804.046-7.562 0-11.273.98-.723.186-.91.42-.91 1.143.024 12.51.024 25.019.024 37.551v.957c7.491-.023 14.89-.023 22.38-.023zM49.5 61.786c-1.073.164-3.104.327-5.04.794-3.548.84-6.745 2.427-9.056 5.391-2.45 3.127-2.52 7.001 0 10.059a15.183 15.183 0 003.944 3.384c4.855 2.847 10.152 3.36 15.637 2.38 3.15-.56 6.044-1.727 8.518-3.78 2.217-1.844 3.711-4.108 3.664-7.119-.046-2.847-1.493-5.04-3.617-6.791-3.804-3.127-8.308-4.178-14.05-4.318zM27.983 46.36h19.58c-.187-1.097-.327-2.147-.56-3.174-1.027-4.318-3.594-7.655-6.791-10.572-.187-.164-.537-.21-.794-.21-2.94-.024-5.881-.024-8.845 0-.28 0-.607.046-.794.21-2.497 2.31-4.714 4.854-5.95 8.098-.094.257-.164.513-.257.84l3.197.654c.817.163 1.26.7 1.26 1.54-.046.863-.046 1.704-.046 2.614zm.046 14.073h1.004c3.407 0 6.838-.117 10.222.047 2.894.14 5.484-1.12 8.262-1.284v-9.919H28.029v11.156zM38.578 84.19c-2.24-1.307-4.06-2.707-5.461-4.574-1.587-2.124-2.52-4.481-2.287-7.165.327-3.5 1.913-6.371 4.667-8.565.21-.164.42-.35.724-.584h-8.168V84.19h10.525zm-9.195-62.943c0 2.38-.023 4.69 0 6.978 0 .864.583 1.377 1.493 1.377 2.731.023 5.485.023 8.216 0 .956 0 1.47-.56 1.493-1.564.023-1.61 0-3.197 0-4.807v-2.007c-3.78.023-7.421.023-11.202.023zM49.757 4.584c-.257-.186-.397-.303-.537-.373-2.637-1.424-5.344-1.634-8.168-.56-.63.233-1.26.49-1.914.607-2.497.443-4.924-.07-7.305-.794-.84-.256-1.75-.326-2.637-.443-.63-.07-1.12.187-1.19.863-.07.63.35.934.933 1.074 1.05.257 2.1.513 3.128.793 1.26.327 1.517.677 1.517 1.96v5.065h2.8c0-1.844-.023-3.617 0-5.39 0-.934.49-1.518 1.33-1.541 3.058-.024 6.139-.257 9.08.887.21.093.583.046.77-.094.746-.653 1.446-1.353 2.193-2.054zM11.202 33.757h5.531v-6.861h-5.53v6.861zm6.932 7.025v-4.107H9.849v4.107h8.285zM30.83 18.354h8.285v-2.73H30.83v2.73z" fill="#FF4D00"/><path d="M16.523 52.03h2.964c.817 0 1.424.444 1.447 1.238.024 2.357.14 4.737-.14 7.071-.42 3.244-3.29 5.601-6.558 5.695-1.89.046-3.78.023-5.67 0-.888 0-1.541-.467-1.541-1.237 0-2.357-.14-4.738.163-7.072.42-3.29 3.338-5.624 6.652-5.694.886-.023 1.797 0 2.683 0zm-6.72 11.203c1.47 0 2.846.024 4.2 0 2.054-.046 3.827-1.447 4.06-3.477.188-1.587.047-3.22.047-4.901h-.816c-1.26 0-2.498-.047-3.758.023-1.937.14-3.594 1.727-3.734 3.664-.093 1.517 0 3.057 0 4.691zm40.584 16.804c-1.937-.047-3.71-.56-5.204-1.89-2.404-2.125-2.38-5.369.046-7.469 2.778-2.427 7.422-2.474 10.246-.093 2.567 2.147 2.544 5.578-.047 7.725-1.447 1.19-3.174 1.68-5.04 1.727zm-.047-2.8c1.307-.048 2.544-.328 3.525-1.284.98-.957.956-2.101 0-3.058-1.68-1.68-5.275-1.68-6.955 0-.957.957-.98 2.124 0 3.058.957.933 2.147 1.236 3.43 1.283zm-4.13-9.849V64.68h2.707v2.707H46.21zm8.331-2.708v2.708h-2.683V64.68h2.683zm-11.179 4.2v2.685h-2.73V68.88h2.73zm14.097-.023h2.683v2.731H57.46v-2.73z" fill="#FF4D00"/></svg>