<svg width="87" height="88" fill="none" xmlns="http://www.w3.org/2000/svg"><path d="M0 81.44V5.664C.906 1.699 3.874-.022 7.974 0c17.104.113 34.207.046 51.31.046 1.473 0 2.946-.023 4.418 0 3.172.067 5.822 2.355 6.32 5.482.136.86.136 1.721.204 2.56h3.716V1.994c0-1.609.34-1.971 1.925-1.971h3.987c4.418 0 7.136 2.718 7.136 7.158v49.34c0 1.337-.385 1.926-1.246 1.948-.883.023-1.314-.589-1.314-1.948V6.41c-.09-1.767-1.269-3.398-3.013-3.647-1.586-.227-3.24-.045-4.848-.045v81.734h3.308c2.967 0 4.576-1.586 4.576-4.553V62.57c0-.975.52-1.564 1.291-1.54.748.022 1.246.588 1.246 1.517 0 6.003.023 12.006 0 18.01-.023 2.876-1.948 5.346-4.712 6.184l-.884.272H74.78c-.635-.453-.861-1.042-.838-1.813.045-1.359.022-2.718.022-4.077v-2.175h-3.783c0 .566.023 1.088 0 1.586-.113 3.08-2.13 5.573-5.12 6.298-.158.045-.317.113-.476.158H5.641c-1.722-.43-3.33-1.155-4.304-2.718C.747 83.456.43 82.414 0 81.44zm73.85-20.252V24.919h-3.714v4.168c0 1.45.022 2.9-.023 4.327-.023.793-.566 1.292-1.291 1.292s-1.2-.522-1.246-1.337c-.023-.25 0-.498 0-.77V7.204c0-3.013-1.586-4.621-4.599-4.621H7.181c-3.08 0-4.644 1.563-4.644 4.644v72.537c0 3.148 1.54 4.712 4.69 4.712h55.637c3.194 0 4.734-1.54 4.734-4.758V39.372c0-.272-.022-.566 0-.838.046-.725.567-1.246 1.224-1.269.657-.022 1.223.499 1.291 1.201.023.272.023.566.023.838v21.839c1.29.045 2.469.045 3.715.045zM70.205 76.32h3.692V63.816h-3.692V76.32zm0-54.051h3.692V10.76h-3.692v11.508z" fill="#FF4D00"/><path d="M10.353 76.366h5.482c-.884-1.292-1.337-2.628-1.337-4.078v-2.81c0-4.19.046-8.381-.022-12.572-.023-1.948.362-3.76 1.223-5.482l.25-.566c-.386-.204-.839-.34-1.11-.612-.68-.68-.273-1.858.679-2.062.226-.045.453-.022.68-.022h15.45c1.086 0 1.608.362 1.698 1.133.09.77-.34 1.223-1.404 1.495 0 .045-.023.113 0 .158 1.178 2.175 1.495 4.508 1.45 6.977-.091 4.44-.046 8.88-.023 13.344 0 1.79-.159 3.51-1.337 5.097h5.913c0-.023.068-.091.045-.136-.997-1.473-1.223-3.104-1.2-4.848.045-3.489.022-6.955.022-10.444-.023-4.44 1.45-8.314 4.395-11.62.227-.25.362-.703.362-1.066.023-3.375.023-6.728.023-10.103 0-2.13 1.223-3.353 3.398-3.353h2.537c2.084 0 3.33 1.223 3.33 3.33.023 3.285.023 6.57 0 9.855 0 .68.182 1.155.635 1.653 2.764 3.172 4.123 6.91 4.168 11.123.023 3.783 0 7.59 0 11.372 0 1.518-.385 2.9-1.314 4.237h5.369V30.424H10.353v25.304c0 .272.022.566-.023.838-.136.703-.566 1.133-1.291 1.11-.702-.022-1.133-.453-1.223-1.178-.023-.226 0-.453 0-.68V10.127c0-1.563.317-1.88 1.88-1.88h50.79c1.494 0 1.857.363 1.857 1.835v67.032c0 1.54-.34 1.88-1.903 1.88H9.718c-1.608 0-1.925-.294-1.925-1.948v-14.86c0-.25-.023-.522.023-.77.09-.68.498-1.088 1.155-1.133.725-.046 1.178.362 1.336 1.042.068.271.023.566.023.838v13.252c.023.25.023.566.023.952zm49.385-48.638V10.806H10.42v16.877h5.21c-3.511-4.327-1.97-9.356 1.065-11.712s8.336-2.605 11.644 1.925c1.654-2.265 3.828-3.579 6.683-3.601 2.877-.023 5.074 1.29 6.773 3.556 3.534-4.598 8.518-4.1 11.236-2.197 1.677 1.155 2.787 2.718 3.262 4.69.68 2.718-.045 5.119-1.812 7.339 1.812.045 3.489.045 5.256.045zm-6.66 32.53H39.44v8.473h13.638V60.26zm-22.292-.022h-13.66v8.518h13.66v-8.518zm8.948-2.65H52.76c-.566-2.583-1.699-4.803-3.488-6.66-.68-.703-.997-1.428-.952-2.402.068-1.744.023-3.488.023-5.255h-4.168c0 1.834-.046 3.624.022 5.391.023.884-.249 1.54-.883 2.175-1.835 1.88-3.013 4.145-3.58 6.75zm-22.585.022H30.74c.045-.113.09-.18.09-.271.295-2.357-.588-4.395-1.744-6.344-.113-.18-.453-.294-.702-.294a581.946 581.946 0 00-8.903 0c-.226 0-.543.09-.634.25-1.178 2.038-2.13 4.122-1.7 6.66zm25.938-35.294c0 3.013 2.424 5.46 5.437 5.46 2.99 0 5.46-2.47 5.46-5.46 0-2.99-2.447-5.437-5.46-5.437a5.41 5.41 0 00-5.437 5.437zm-16.039 0a5.395 5.395 0 00-5.436-5.437c-3.013 0-5.46 2.424-5.46 5.414 0 2.99 2.447 5.46 5.437 5.46a5.458 5.458 0 005.46-5.437zm8.088-5.437c-3.013-.022-5.482 2.356-5.528 5.369-.045 2.968 2.402 5.482 5.392 5.527a5.473 5.473 0 005.527-5.368 5.434 5.434 0 00-5.391-5.528zm-4.35 54.55H17.15c-.385 2.877 1.336 4.916 4.123 4.961 1.722.023 3.443 0 5.165 0 2.945-.023 4.621-1.903 4.35-4.96zm8.7-.045c-.386 2.718 1.2 4.87 3.647 4.96 2.084.069 4.19.069 6.275 0 2.424-.09 4.168-2.514 3.579-4.96H39.485zm4.689-30.764h4.168c0-.929.045-1.79-.023-2.65-.022-.25-.407-.612-.657-.635a19.055 19.055 0 00-2.786 0c-.25.023-.634.408-.657.635-.09.86-.045 1.721-.045 2.65zm-2.379-13.955c-.294.386-.521.703-.77 1.043h1.563c-.272-.386-.498-.657-.793-1.043zm-13.479 0c-.294.408-.52.703-.77 1.043h1.586a41.72 41.72 0 00-.816-1.043z" fill="#FF4D00"/><path d="M46.689 23.538c-.385 0-.793.045-1.178 0-.702-.091-1.065-.544-1.087-1.2-.023-.635.294-1.156.951-1.224a12.6 12.6 0 012.605 0c.634.068.952.611.929 1.246-.045.657-.408 1.11-1.11 1.178-.362.045-.725 0-1.11 0zm-26.958-.001c-.362 0-.747.023-1.11 0-.68-.068-1.087-.476-1.132-1.155-.046-.68.294-1.201.974-1.292.838-.09 1.699-.09 2.514 0 .68.068.997.612.951 1.292-.045.68-.43 1.087-1.132 1.155-.317.045-.702 0-1.065 0zm13.456 0c-.362 0-.747.023-1.11 0-.702-.068-1.087-.52-1.11-1.178-.045-.657.318-1.2.997-1.268a12.585 12.585 0 012.447-.023c.68.068 1.064.566 1.042 1.246-.023.702-.408 1.155-1.156 1.223-.385.045-.747.023-1.11 0 0 .023 0 0 0 0z" fill="#FF4D00"/></svg>