<svg width="88" height="88" fill="none" xmlns="http://www.w3.org/2000/svg"><path d="M0 73.74c.25-1.385.386-2.793.772-4.156 2.816-10.423 9.538-17.077 19.71-20.37 2.908-.93 5.928-1.294 8.97-1.225.16 0 .319-.023.523-.023-.477-1.408-.931-2.77-1.453-4.11-.069-.182-.5-.296-.795-.318-3.702-.34-7.04-1.59-9.833-4.042-5.495-4.837-7.516-10.9-5.586-17.94 1.907-6.971 6.699-11.127 13.807-12.558.476-.09.93-.159 1.498-.25V4.844c0-3.089 1.772-4.837 4.86-4.837h49.89c3.043 0 4.837 1.771 4.837 4.791v32.019c-.023 12.08-7.925 22.163-19.666 25.002-.499.113-.726.318-.68.84.022.568.022 1.136-.046 1.703-.227 2.271-1.999 3.906-4.27 3.929-1.816.022-3.61 0-5.29 0 .295 2.27.68 4.473.84 6.699.182 2.588-.227 5.132-.795 7.675-.5 2.226-1.521 3.86-3.815 4.542h-1.703c-1.317-.364-2.248-1.204-3.157-2.18-10.286-11.06-28.226-11.24-38.74-.364-1 1.045-1.998 2.067-3.406 2.544H4.61c-1.226-.454-2.385-1.045-2.975-2.316a11.162 11.162 0 01-.75-2.226C.546 81.12.296 79.576 0 78.032V73.74zM57.43 2.89H32.472c-1.476 0-1.953.477-1.953 1.93v32.019c0 3.747.863 7.29 2.589 10.65.318.636.726.908 1.385 1.022 7.176 1.34 13.057 4.882 17.622 10.56.318.408.635.544 1.135.544 2.816-.023 5.632.068 8.425-.045 1.726-.068 3.474-.205 5.132-.59 10.4-2.453 17.463-11.4 17.463-22.096.022-10.605 0-21.232 0-31.837 0-1.703-.432-2.112-2.09-2.112-8.243-.045-16.508-.045-24.752-.045zM25.591 73.808h6.949c1.976-7.017 3.974-14.102 5.972-21.232-6.335-2.294-12.58-2.317-18.893-.023 1.998 7.153 3.997 14.215 5.972 21.255zm2.203-33.268c-.068-1.249-.159-2.43-.159-3.61 0-.568-.182-.75-.75-.863-4.337-.931-7.607-4.7-7.947-9.084-.34-4.45 2.225-8.606 6.38-10.241.727-.295 1.5-.477 2.249-.704V11.79c-5.61.273-12.944 5.36-13.012 14.284-.068 8.993 7.357 14.238 13.239 14.465zM8.016 61.046c3.497 4.882 6.949 9.719 10.378 14.556 1.453-.432 2.861-.84 4.292-1.272-1.93-6.88-3.86-13.693-5.791-20.574-3.543 1.794-6.45 4.179-8.879 7.29zm33.177-7.244c-1.953 6.903-3.86 13.716-5.79 20.528 1.453.432 2.86.84 4.314 1.25 3.36-4.701 6.721-9.402 10.06-14.125.113-.16.068-.545-.069-.704-2.293-2.907-5.109-5.2-8.515-6.95zM6.245 63.566c-3.497 6.359-4.292 12.808-2.203 19.598.204.636.636.999 1.272 1.09.726.113 1.226-.296 1.68-.818a28.281 28.281 0 018.13-6.335c.181-.091.34-.227.545-.364-3.134-4.382-6.222-8.697-9.424-13.17zm36.174 13.24a29.769 29.769 0 018.834 6.744c1.112 1.249 2.452.908 2.93-.681 1.362-4.52 1.407-9.038.113-13.58-.545-1.93-1.34-3.77-2.521-5.564a2722.085 2722.085 0 00-9.356 13.08zm-14.851-57.68c-3.247.318-5.904 3.747-5.768 7.403.113 3.247 2.997 6.563 5.768 6.586V19.126zm27 43.419c.454.908.84 1.77 1.294 2.611.069.136.364.227.568.227 2.021.023 4.02.023 6.04 0 .864 0 1.386-.522 1.454-1.362.045-.477 0-.954 0-1.476h-9.356z" fill="#FF4D00"/><path d="M81.387 37.61c-.25 8.744-6.472 16.442-15.01 18.508-1.113.273-1.885-.09-2.112-.976-.228-.863.317-1.567 1.407-1.84 7.472-1.93 12.513-8.197 12.808-15.895.045-1.159.568-1.817 1.453-1.817.909 0 1.454.726 1.43 1.907a.198.198 0 01.024.114z" fill="#FF4D00"/></svg>