<svg width="23" height="23" fill="none" xmlns="http://www.w3.org/2000/svg"><path d="M22.938 3.137v18.189c-.293.992-.937 1.239-1.835 1.237-6.465-.014-12.93-.018-19.395-.01a2.428 2.428 0 01-.603-.053C.388 22.314 0 21.755 0 20.944V3.337a1.468 1.468 0 011.462-1.45c.302-.01.597 0 .895 0h1.614v.258c0 .703-.014 1.406.008 2.104.001.282.058.56.168.82.302.662.863.944 1.587.937 1.17 0 1.838-.66 1.838-1.826V1.895h7.977v2.379c0 .71.321 1.267.983 1.572.45.2.937.185 1.407.095.81-.155 1.206-.646 1.206-1.471V1.897c.846 0 1.666-.008 2.486.007.17.016.337.065.488.146.469.215.697.614.82 1.087zm-1.483 4.578H1.486v13.364h19.97V7.715z" fill="#FFB800"/><path d="M4.705 2.665v-1.59c0-.674.359-1.024 1.04-1.03.267 0 .522.023.74.194a.922.922 0 01.354.764c0 1.105.01 2.21 0 3.316-.006.608-.381.955-.996.964-.28 0-.553-.01-.785-.2a.904.904 0 01-.35-.741l-.003-1.677zm13.712-.01v1.607c0 .624-.36.978-.99.984-.1 0-.208 0-.313-.006a.86.86 0 01-.803-.763c-.03-.295-.022-.595-.023-.893V1.077c0-.402.1-.758.48-.937a1.307 1.307 0 011.246.037.821.821 0 01.403.754v1.724zM4.935 19.662H3.748c-.257 0-.308-.048-.308-.301V17.28c0-.215.094-.292.302-.292H6.16c.246 0 .301.059.301.308v2.059c0 .243-.057.301-.307.301-.414.008-.817.006-1.22.006zm4.318 0h-1.23c-.202 0-.285-.078-.283-.28.006-.702.006-1.403 0-2.104 0-.201.08-.286.277-.286h2.462c.201 0 .277.095.275.29a153.73 153.73 0 000 2.083c0 .21-.085.301-.293.296-.402-.002-.805.001-1.208.001zm4.3.001h-1.206c-.251 0-.302-.051-.302-.302v-2.059c0-.253.049-.301.302-.301h2.418c.2 0 .301.08.296.293-.007.694-.007 1.387 0 2.081 0 .212-.085.302-.293.296-.41-.011-.812-.008-1.215-.008zm4.323-2.668h1.187c.2 0 .296.082.294.296a97.547 97.547 0 000 2.08c0 .214-.09.295-.301.294-.814-.004-1.627-.004-2.44 0-.2 0-.28-.083-.279-.283.006-.702.006-1.403 0-2.105 0-.2.088-.283.282-.282.422.002.84 0 1.257 0zm-4.329-4.809c-.402 0-.804-.006-1.206 0-.206 0-.301-.07-.301-.286.006-.7.006-1.401 0-2.103 0-.188.074-.274.264-.273h2.484c.189 0 .267.084.266.273 0 .703-.006 1.407 0 2.103 0 .216-.1.29-.301.286-.4-.006-.803 0-1.206 0zm4.321-2.659h1.206c.2 0 .282.08.281.282a134.05 134.05 0 000 2.103c0 .201-.09.277-.286.276-.813-.004-1.626-.004-2.44 0-.212 0-.29-.086-.288-.294.006-.694.007-1.388 0-2.081 0-.217.09-.29.296-.288.41.008.82.002 1.23.002zM4.925 15.92H3.719c-.201 0-.282-.082-.28-.283.006-.7.006-1.4 0-2.103 0-.2.087-.278.285-.276.812.004 1.625.004 2.439 0 .21 0 .294.085.292.294-.006.694-.006 1.387 0 2.081 0 .216-.093.29-.301.288-.41-.006-.82-.001-1.23-.001zm4.301 0H8.02c-.2 0-.28-.082-.277-.283.006-.7.006-1.4 0-2.103 0-.2.085-.278.283-.276.813.004 1.626.004 2.439 0 .211 0 .294.085.292.294 0 .694-.006 1.388 0 2.081 0 .216-.094.29-.301.288-.41-.006-.82-.001-1.23-.001zm4.335-2.658h1.186c.256 0 .301.048.306.297v2.08c0 .202-.081.283-.28.282h-2.461c-.201 0-.275-.09-.273-.287.004-.694.004-1.387 0-2.081 0-.208.076-.302.289-.295.412.01.822.004 1.233.004zm4.267 2.658h-1.205c-.201 0-.28-.08-.278-.282.006-.701.006-1.402 0-2.104 0-.2.086-.278.284-.276.812.004 1.625.004 2.438 0 .212 0 .295.084.293.294-.006.694-.006 1.387 0 2.081 0 .216-.094.29-.302.288-.41-.006-.82-.001-1.23-.001z" fill="#FFB800"/></svg>