<svg width="73" height="73" fill="none" xmlns="http://www.w3.org/2000/svg"><path d="M0 34.12c.202-1.383.342-2.765.607-4.131C3.064 17.875 9.799 8.882 20.983 3.649c11.884-5.56 23.627-4.675 34.904 2.034 1.011.606 1.556 1.445 1.4 2.625-.249 1.832-2.162 2.624-3.873 1.724-2.1-1.103-4.184-2.299-6.408-3.106C29.366.543 9.83 11.32 5.756 29.6c-3.687 16.587 6.252 32.972 22.693 37.382 17.048 4.582 34.889-6.18 38.762-23.373.746-3.308.949-6.647.669-10.017-.125-1.507.87-2.734 2.333-2.842 1.353-.094 2.473.931 2.613 2.407 1.804 18.186-10.608 35.13-28.574 39.013-19.147 4.13-38.14-7.533-43.085-26.527-.514-1.972-.7-4.022-1.027-6.026-.031-.232-.093-.45-.14-.683V34.12z" fill="red"/><path d="M22.874 53l10.1-15.8-9.65-16.7h8.65l6 11.65h.15l6.95-11.65h4.9l-9.5 15L51.124 53h-8.6l-6.95-12.4h-.15L28.074 53h-5.2z" fill="red"/></svg>