<svg width="181" height="36" fill="none" xmlns="http://www.w3.org/2000/svg"><path d="M.104 10.506c.37 1.187.683 2.328 1.078 3.427.665 1.859 1.586 3.584 3.104 4.892 1.859 1.601 4.023 2.387 6.493 2.142a4.275 4.275 0 003.59-2.514c.87-1.792.134-3.856-1.707-4.815-.776-.409-1.593-.572-2.45-.259a2.452 2.452 0 00-1.411 1.363 1.63 1.63 0 00.649 2.007 1.471 1.471 0 001.934-.305c.166-.181.303-.39.492-.634a4.13 4.13 0 010 .442c-.174 1.466-1.34 2.26-2.778 1.89-1.833-.47-2.671-2.547-1.673-4.277.902-1.551 2.327-2.268 4.104-2.154a5.025 5.025 0 014.725 4.508c.258 2.702-1.252 4.967-3.82 5.673a7.5 7.5 0 01-3.62.06c.21.077.416.163.628.232.212.07.453.148.68.213 2.321.611 4.717.892 7.117.832a35.755 35.755 0 0010.403-1.626c2.71-.854 5.268-2.017 7.482-3.84 1.61-1.327 2.867-2.915 3.514-4.93a4.251 4.251 0 00-.613-3.93 2.976 2.976 0 00-3.729-.983 2.974 2.974 0 00-1.686 3.362 4.19 4.19 0 001.112 2.102 4.596 4.596 0 01-2.134-2.022c-1.45-2.746.112-5.89 3.225-6.509 2.643-.517 5.045.776 6.134 3.388 1.128 2.692.636 5.182-1.174 7.42-.566.702-1.28 1.292-1.929 1.92a.671.671 0 00-.194.26c.098-.042.202-.079.3-.125 3.253-1.523 6.514-3.039 9.76-4.577 3.7-1.774 7.432-3.517 11.324-4.862a43.9 43.9 0 019.728-2.252 38.335 38.335 0 0114.275 1.262c1.293.351 2.586.654 3.879.923.978.2 1.99.162 2.95-.109 2.429-.67 3.595-2.888 2.817-5.34A6.209 6.209 0 0091.547.713l-.243-.308c.11.022.217.052.321.09 1.826.93 3.103 2.328 3.543 4.366a4.852 4.852 0 01-4.205 5.948c-.468.057-.941.064-1.407.093l5.193 2.94-.018.096-.97.344a794.14 794.14 0 00-3.201 1.163.685.685 0 01-.637-.046 41.178 41.178 0 00-7.297-3.305 30.594 30.594 0 00-8.423-1.502c-.026 0-.052.015-.106.033.385.173.755.32 1.107.502a6.336 6.336 0 013.126 3.34 4.458 4.458 0 01-.563 4.467c-1.06 1.484-3.22 2.676-5.128 2.816.137-.09.225-.15.313-.204a8.103 8.103 0 001.99-1.678c1.325-1.612 1.31-3.502-.056-5.15-1.146-1.38-2.659-2.166-4.345-2.67a16.396 16.396 0 00-7.215-.399c-3.674.554-7.199 1.676-10.659 2.987-3.812 1.446-7.585 2.992-11.378 4.515-4.322 1.738-8.653 3.445-13.143 4.714a47.946 47.946 0 01-9.113 1.751c-1.215.101-2.436.093-3.656.135h-.323v.085c.832.14 1.66.297 2.493.416 1.799.253 3.614.37 5.43.352a53.64 53.64 0 009.002-.869c5.309-.93 10.473-2.446 15.653-3.902 2.633-.742 5.273-1.464 7.931-2.103a20.507 20.507 0 016.403-.54 9.49 9.49 0 013.923 1.034c1.743.962 2.615 2.473 2.744 4.428.119 1.823-.339 3.545-.967 5.234-.13.349-.259.693-.393 1.034 0 0 0 .018.033.057.453-.375.9-.75 1.353-1.122a92.12 92.12 0 0116.11-10.763c5.26-2.731 10.753-4.828 16.569-6.028a45.848 45.848 0 0111.001-.954 48.326 48.326 0 0113.887 2.676 67.913 67.913 0 018.619 3.62c2.221 1.12 4.396 2.328 6.604 3.481.099.052.194.111.368.215-.59.607-1.169 1.176-1.715 1.776-.388.43-.727.456-1.267.197a84.824 84.824 0 00-15.312-5.69 61.365 61.365 0 00-12.601-1.916 52.281 52.281 0 00-21.82 3.768c-6.207 2.47-11.98 5.772-17.451 9.597a111.582 111.582 0 00-7.396 5.643c-.085.072-.176.142-.347.274.067-.166.101-.259.135-.337.814-2.014 1.51-4.073 1.849-6.237.2-1.143.2-2.312 0-3.455-.414-2.12-1.717-3.398-3.781-3.936a12.424 12.424 0 00-4.396-.22c-2.716.26-5.338.994-7.965 1.679-4.507 1.176-8.997 2.415-13.504 3.581a82.832 82.832 0 01-10.861 2.07c-3.47.434-6.976.52-10.463.258-2.558-.207-5.058-.667-7.422-1.715-3.957-1.756-6.336-4.781-7.24-8.996a11.04 11.04 0 01-.26-2.49c.021-1.418 0-2.845 0-4.252.01-.367.068-.758.104-1.195zM143.438 26.2c.406-.367.776-.664 1.107-1.01.331-.347.6-.733.918-1.128.53.281 1.076.584 1.634.866 3.946 2.004 8.066 3.51 12.449 4.218 2.63.426 5.265.517 7.885-.101 3.589-.85 6.245-2.894 7.724-6.292 1.293-2.94 1.06-5.898-.305-8.761-1.122-2.38-2.963-3.998-5.518-4.71-1.596-.442-3.173-.431-4.673.363a4.575 4.575 0 00-2.41 2.93c-.606 2.242.933 4.137 3.255 4.067 1.482-.054 2.563-.9 2.791-2.25a8.63 8.63 0 000-1.383c.056.063.109.13.157.2 1.353 2.024.867 4.47-1.197 5.826-1.746 1.145-3.62 1.142-5.482.349-2.085-.885-3.235-2.524-3.566-4.748-.564-3.77 1.701-7.05 4.879-8.568 1.568-.747 3.233-.967 4.953-.941 2.423-.01 4.799.676 6.845 1.976a12.827 12.827 0 015.826 8.678c.944 4.945-.427 9.25-3.951 12.837-1.901 1.934-4.27 3.052-6.897 3.636a22.574 22.574 0 01-7.063.35c-5.223-.49-10.134-2.098-14.9-4.21-1.368-.606-2.695-1.294-4.039-1.961-.107-.05-.2-.1-.422-.233z" fill="#000"/><path d="M142.773 13.661a2.509 2.509 0 01-1.595 2.767c-2.097.859-5.397-.22-5.966-3.072-.354-1.771.155-3.362 1.293-4.714 2.935-3.51 8.534-3.026 10.784 1.388.711 1.402.858 2.91.752 4.44-.401 5.8-3.212 10.213-7.905 13.49-2.749 1.915-5.842 3.012-9.121 3.62-5.689 1.034-11.166.24-16.509-1.81-3.716-1.436-7.197-3.334-10.561-5.431-2.672-1.673-5.304-3.409-7.952-5.118-.067-.044-.124-.096-.259-.194.688-.178 1.293-.365 1.937-.5.939-.2 1.883-.38 2.829-.542a.775.775 0 01.517.119c2.692 1.758 5.351 3.566 8.066 5.28 3.17 2.002 6.488 3.722 10.065 4.898 2.821.926 5.707 1.47 8.686 1.322 4.707-.233 8.986-1.653 12.584-4.795a13.946 13.946 0 004.672-8.52 6.79 6.79 0 00-.418-3.952 3.549 3.549 0 00-4.526-1.919 2.955 2.955 0 00-1.707 1.62 2.076 2.076 0 00.109 1.913 2.063 2.063 0 001.634 1.003c.931.08 1.666-.305 2.278-.97.096-.106.189-.217.285-.323h.028z" fill="#000"/></svg>