<svg width="27" height="26" fill="none" xmlns="http://www.w3.org/2000/svg"><rect width="27" height="26" rx="3" fill="#FFB800"/><path d="M13.816 3.246a.664.664 0 01.349.377c.166.386.35.764.52 1.148a.235.235 0 00.229.165c.443.04.885.097 1.326.147.197.021.355.106.42.3.066.194 0 .367-.153.508-.322.29-.634.592-.96.875a.31.31 0 00-.108.347c.095.422.171.848.262 1.27a.439.439 0 01-.168.483.426.426 0 01-.498.012c-.397-.225-.797-.445-1.192-.675a.23.23 0 00-.265 0c-.385.222-.776.435-1.161.656-.18.104-.358.133-.53.005-.174-.128-.21-.297-.161-.504.093-.422.17-.848.261-1.27a.284.284 0 00-.097-.317c-.331-.288-.644-.594-.973-.885-.157-.14-.22-.309-.154-.508.067-.198.224-.278.42-.3.448-.05.896-.104 1.345-.148a.214.214 0 00.2-.148c.173-.39.359-.773.528-1.164.06-.165.182-.3.34-.374h.22zm6.019 15.091c.338.676.258 1.151-.293 1.72.145.26.199.561.154.856-.118.644-.631 1.073-1.308 1.074-1.543.004-3.086.004-4.63 0h-1.957c-.425-.011-.49-.076-.49-.488v-7.632a.49.49 0 01.126-.345 6.98 6.98 0 001.654-3.7c.08-.623.577-.9 1.147-.633.774.362 1.149 1.006 1.264 1.823.132.939-.061 1.845-.31 2.742-.057.21-.124.418-.194.653h.21c1.301 0 2.6-.005 3.9 0a1.265 1.265 0 011.263 1.378c-.017.241-.08.397-.344.792.378.693.33 1.153-.192 1.76zm-9.402-.297c0 1.105-.009 2.21.006 3.313.004.262-.106.425-.316.52a1.25 1.25 0 01-.49.117c-.958.01-1.915.006-2.873.005-.601 0-.95-.35-.951-.958v-5.982c0-.62.347-.966.96-.966.952 0 1.902-.005 2.854.005.163.002.325.036.475.1.227.097.345.264.342.542-.016 1.097-.007 2.201-.007 3.305zM7.53 16.134h.16a.43.43 0 00.429-.418.426.426 0 00-.383-.454 1.934 1.934 0 00-.437 0 .437.437 0 00.052.872c.057.004.119 0 .179 0zm10.2-6.614c.061-.309.125-.663.206-1.013a.28.28 0 00-.102-.316c-.24-.207-.467-.429-.703-.643-.152-.138-.234-.296-.168-.504.066-.208.228-.29.43-.312.327-.037.654-.08.982-.108a.236.236 0 00.223-.17c.133-.3.274-.597.409-.898.08-.181.206-.299.416-.302.209-.003.347.118.432.306.136.306.28.61.414.916a.21.21 0 00.202.145c.334.028.666.073.999.11.197.023.356.107.42.302.066.194 0 .368-.155.508-.254.228-.507.458-.752.696a.258.258 0 00-.065.199c.058.342.128.682.2 1.021a.437.437 0 01-.168.483.43.43 0 01-.498.012c-.297-.169-.597-.332-.891-.505a.228.228 0 00-.266 0c-.3.176-.6.35-.907.512-.327.177-.671-.037-.659-.439zm-8.535.505a1.486 1.486 0 01-.217-.087 117.4 117.4 0 01-.86-.483.228.228 0 00-.265 0c-.277.16-.564.317-.842.483-.182.107-.364.147-.547.014-.183-.133-.212-.308-.16-.52.072-.322.125-.644.197-.966a.213.213 0 00-.08-.236c-.251-.222-.494-.455-.745-.678-.16-.14-.222-.307-.16-.507.061-.2.226-.29.424-.312.34-.039.68-.072 1.017-.12a.261.261 0 00.171-.122c.147-.294.283-.593.414-.895.088-.2.21-.344.446-.342.236.002.355.153.442.35.13.294.27.586.402.884a.196.196 0 00.189.135c.334.03.666.073.999.111.203.024.364.105.432.312.067.206-.013.366-.161.504-.236.213-.463.434-.703.644a.278.278 0 00-.104.315c.075.314.136.631.196.948.06.317-.13.565-.485.568z" fill="#2D2D2D"/></svg>