<svg width="27" height="27" fill="none" xmlns="http://www.w3.org/2000/svg"><path d="M13.606 26.4H8.948c-1.512 0-3.025-.006-4.537-.006H2.173c-.732 0-1.32-.266-1.646-.95a1.996 1.996 0 01-.17-.816c-.01-2.239-.004-4.478-.004-6.715 0-2.118-.006-4.235-.006-6.352 0-2.118.006-4.235.006-6.352 0-1.107-.012-2.22-.006-3.328C.346 1.15.588.526 1.289.2c.273-.127.6-.194.902-.194 2.008-.012 4.01 0 6.02 0 2.115 0 4.233-.006 6.35-.006s4.235.006 6.352.006h3.993c.64 0 1.21.182 1.536.762.164.29.285.654.285.986.024 2.456.012 4.919.012 7.38 0 2.723.012 5.445.012 8.168 0 2.28 0 4.555-.012 6.835 0 .37.006.757-.097 1.102-.218.726-.835 1.143-1.658 1.155-1.379.012-2.764 0-4.144 0h-4.597c-.883.006-1.76.006-2.638.006zM10.08 8.39c.115.067.146.085.17.097.036.019.066.049.103.055.69.157.986.623 1.064 1.288.103.89.115 1.767-.15 2.632-.207.671-.612.762-1.09.254a1.06 1.06 0 01-.079-.09c-.29-.394-.617-.775-.865-1.192a171.959 171.959 0 01-1.857-3.237c-.109-.193-.224-.272-.447-.266-1.09.018-2.178.012-3.267.024-.067 0-.127.018-.212.03.048.127.079.236.121.333.593 1.307 1.156 2.626 1.785 3.908.599 1.228 1.349 2.371 2.196 3.448.774.98 1.67 1.815 2.813 2.36 1.41.671 2.891.786 4.416.599.314-.037.43-.158.466-.448.042-.37.115-.732.175-1.101.085-.49.29-.732.69-.793.326-.048.568.121.768.34.345.374.684.767 1.01 1.16.448.545 1.005.938 1.706.975 1.077.048 2.154.03 3.23.006.63-.018.908-.52.684-1.107-.26-.672-.816-1.107-1.306-1.591-.448-.448-.932-.86-1.38-1.307-.375-.375-.502-.841-.254-1.325.2-.387.436-.774.72-1.107.702-.817 1.385-1.64 1.76-2.668.194-.532.406-1.059.605-1.585-.06-.03-.078-.048-.096-.048-1.398-.006-2.801-.018-4.199-.018-.072 0-.181.06-.211.12-.242.497-.454 1.005-.696 1.5-.55 1.114-1.204 2.16-2.118 3.02-.562.532-.877.423-1.058-.34a.39.39 0 01-.018-.12c.006-.472-.012-.95.024-1.416.06-.708.206-1.41.079-2.13-.073-.405-.279-.7-.672-.81-1.276-.339-2.553-.29-3.805.103-.266.067-.496.266-.805.448z" fill="#D6D6D6"/></svg>