<svg width="105" height="181" fill="none" xmlns="http://www.w3.org/2000/svg"><path d="M3.536 157.503h3.886v11.585h3.536v-26.252H7.422v11.343H3.536v-11.343H0v26.252h3.536v-11.585zm16.367-15.12c-3.232 0-5.64 1.616-5.64 5.502v16.236c0 3.887 2.509 5.505 5.469 5.505 2.89 0 5.399-1.548 5.399-5.505v-16.236c0-3.848-1.959-5.502-5.228-5.502zm1.719 21.293c0 1.925-.964 2.615-1.925 2.615-.962 0-1.926-.69-1.926-2.615v-15.341c0-1.928.964-2.615 1.925-2.615.962 0 1.926.687 1.926 2.615v15.341zm9.029 5.412h3.495V146.16h3.256v-3.324H27.395v3.324h3.256v22.928zm18.116-22.93v-3.324h-9.393v26.252h9.393v-3.324h-5.895v-8.261h5.656v-3.324h-5.656v-8.019h5.895zm6.138-3.324h-3.498v26.252h7.68v-3.324h-4.182v-22.928zM10.939.65H0V131.9h10.939V.65zM105 153.777v-10.938H94.061V33.464h5.47V22.525h-5.47V.651H83.125v21.874H72.188V15.69c0-5.187 3.672-6.287 7.653-5.228V.651C66.088-1.93 61.248 3.163 61.248 15.899v6.629H55.78v10.939h5.47v98.436h10.938v-98.44h10.939v141.094c0 3.283 2.188 5.47 5.469 5.47 3.28 0 5.47-2.184 5.47-5.47v-5.469h5.468v-10.936h-5.469v-4.375H105zm-69.998-20.785c8.75 0 15.31-4.867 15.31-15.311V36.744c0-10.466-6.854-15.31-15.31-15.31-8.46 0-15.314 4.912-15.314 15.31v80.94c0 10.469 6.561 15.308 15.314 15.308zm-4.375-96.248c0-3.28 1.958-4.374 4.375-4.374s4.375 1.094 4.375 4.374v82.031c0 3.284-2.189 4.375-4.375 4.375-2.189 0-4.375-1.091-4.375-4.375v-82.03z" fill="#fff"/></svg>