<svg width="17" height="26" fill="none" xmlns="http://www.w3.org/2000/svg"><path d="M8.549 0c.255.036.51.073.8.11 1.53.218 2.842.837 4.008 1.857 1.457 1.239 2.368 2.805 2.696 4.663a7.98 7.98 0 01-.765 5.173 2533.022 2533.022 0 01-7.14 13.988c0 .036-.037.073-.073.109-.036-.036-.036-.073-.073-.146-2.404-4.699-4.808-9.398-7.176-14.097-.656-1.275-.91-2.66-.802-4.117.146-2.149 1.02-3.97 2.623-5.427C3.777 1.056 5.087.437 6.617.146c.292-.073.62-.073.912-.11.036 0 .072 0 .109-.036h.91zm4.407 8.087a4.842 4.842 0 00-4.845-4.845c-2.695 0-4.88 2.15-4.88 4.845 0 2.66 2.185 4.845 4.844 4.845 2.696.036 4.881-2.15 4.881-4.845z" fill="#FFB800"/></svg>