<svg width="24" height="26" fill="none" xmlns="http://www.w3.org/2000/svg"><path d="M14.706 25.652a8.862 8.862 0 01-.867-.116c-1.04-.202-1.992-.606-2.916-1.155-2.83-1.645-5.082-3.898-6.901-6.583-1.3-1.906-2.368-3.956-3.09-6.15C.5 10.348.182 8.99.066 7.605c-.087-.953-.115-1.877.087-2.83.346-1.559 1.212-2.8 2.483-3.724A5.767 5.767 0 014.513.098c.433-.116.866-.145 1.3 0 .548.173.923.548 1.183 1.068.375.75.635 1.56.866 2.368.174.635.318 1.3.462 1.963.058.26.03.549 0 .838-.057.462-.346.78-.722 1.04-.433.288-.895.49-1.386.692-.404.173-.78.318-1.183.491-.318.144-.434.404-.347.75.866 2.57 2.137 4.91 3.754 7.075a24.709 24.709 0 002.83 3.176c.317.318.664.29.924-.057.461-.578.923-1.127 1.53-1.53.375-.26.808-.492 1.3-.492.317-.029.635.058.894.231 1.329.809 2.57 1.762 3.58 2.975.203.23.347.49.492.75.288.578.26 1.155-.03 1.704-.317.606-.808 1.068-1.356 1.444a6.007 6.007 0 01-3.09 1.126c-.029 0-.086.029-.115.029-.174-.087-.433-.087-.693-.087zm8.951-13.832c0 .838-.087 1.618-.231 2.397a1.143 1.143 0 01-1.126.924c-.549 0-1.04-.375-1.127-.924a1.322 1.322 0 01.03-.577c.49-2.714-.087-5.198-1.733-7.392-1.386-1.877-3.263-3.032-5.515-3.523-.549-.115-.953-.577-.953-1.126 0-.549.346-1.01.895-1.155.289-.087.578 0 .866.087 4.332 1.04 7.652 4.446 8.663 8.807.144.837.23 1.674.23 2.483z" fill="#FFB800"/><path d="M19.816 12.225c0 .577-.057 1.126-.173 1.674-.115.578-.635.982-1.213.924-.606-.057-1.068-.49-1.097-1.097 0-.144.029-.317.058-.462.26-1.588-.029-3.06-.924-4.389-.895-1.328-2.137-2.194-3.725-2.54-.549-.116-.895-.492-.982-1.011a1.126 1.126 0 011.357-1.27c2.426.519 4.274 1.847 5.544 3.955a8.06 8.06 0 011.155 4.216z" fill="#FFB800"/><path d="M15.947 12.571c-.058.347-.058.664-.144 1.01-.116.607-.75 1.011-1.328.896-.636-.144-1.04-.722-.924-1.357a2.71 2.71 0 00-1.53-3.003c-.203-.087-.405-.144-.607-.202a1.17 1.17 0 01-.866-1.126c0-.549.375-.982.895-1.126.26-.058.49 0 .722.057 2.223.578 3.753 2.6 3.782 4.851z" fill="#FFB800"/></svg>